<?xml version="1.0" encoding="utf-8"?>
<!-- Generator: Adobe Illustrator 17.1.0, SVG Export Plug-In . SVG Version: 6.00 Build 0)  -->
<!DOCTYPE svg PUBLIC "-//W3C//DTD SVG 1.1//EN" "http://www.w3.org/Graphics/SVG/1.1/DTD/svg11.dtd">
<svg version="1.1" id="Layer_1" xmlns="http://www.w3.org/2000/svg" xmlns:xlink="http://www.w3.org/1999/xlink" x="0px" y="0px"
	 width="485.9px" height="118.5px" viewBox="0 0 485.9 118.5" enable-background="new 0 0 485.9 118.5" xml:space="preserve">
<g>
	<path fill="#FFFFFF" d="M28.7,115.8H0v-1.5h10.3V5.7H0V4.2h43.4c11.8,0,26.9,8.9,26.9,26.7s-15,26.1-26.9,26.1h-25v57.4h10.3V115.8
		z M40.4,55.4c11.4,0,21.8-9.1,21.8-24.5c0-15.5-10.4-25.2-21.8-25.2H18.4v49.7H40.4z"/>
	<path fill="#FFFFFF" d="M133.1,115.8H68.9v-1.5h10.3V5.7H68.9V4.2h28.7v1.5H87.3v108.6h20.1c18,0,22.2-10.1,24.2-19.6h1.5V115.8z"
		/>
	<path fill="#FFFFFF" d="M197.1,91c0,5.7,0,27.3-25.6,27.5c-20.7,0-29.3-11-29.3-25.2V5.7h-10.3V4.1h28.7v1.5h-10.3v87.9
		c0,5.1-1.1,22.5,20.6,22.5c24.7,0,24.7-19.8,24.7-25.2V21c0-11.5-5.7-15.3-12.1-15.3h-5.1V4.1h36.1v1.5h-5.1
		C203,6,197.1,9.5,197.1,21V91z"/>
	<path fill="#FFFFFF" d="M299.6,115.8h-25.2v-1.5h8l-29.9-60.1l-17.8,22.1v38h10.3v1.5h-28.8v-1.5h10.3V5.7h-10.3V4.2h28.8v1.5
		h-10.3v68h0.3l44.4-55.4c1.5-1.8,2.6-4.6,2.6-6.8c0-3.2-1.7-5.8-5.2-5.8h-4.9V4.2h27.8v1.5h-3.2c-4.1,0-10.4,7.1-15.8,13.7
		L258,47.4l33.3,66.9h8.3V115.8z"/>
	<path fill="#FFFFFF" d="M384.5,115.8h-25.2v-1.5h8l-29.9-60.1l-17.8,22.1v38h10.3v1.5h-28.7v-1.5h10.3V5.7h-10.3V4.2h28.7v1.5
		h-10.3v68h0.3l44.3-55.4c1.5-1.8,2.6-4.6,2.6-6.8c0-3.2-1.7-5.8-5.2-5.8h-4.9V4.2h27.8v1.5h-3.2c-4.1,0-10.4,7.1-15.8,13.7
		L343,47.4l33.3,66.9h8.3V115.8z"/>
	<path fill="#FFFFFF" d="M485.9,115.9h-26.5v-1.5h9.5l-12.9-35.9h-41.1l-4.3,14c-0.9,3.7-2.6,9.2-2.6,11.7c0,7.4,3.1,10.3,9.1,10.3
		h5.2v1.5h-36.1v-1.5h5.4c8.9,0,13.5-10.4,18.1-25.2l25.5-84.2c0.3-0.8,0.9-1.7,1.7-1.7c0.8,0,1.2,0.9,1.5,1.5l39.4,109.5h8.1V115.9
		z M433.7,16h-0.3l-18.1,60.9h40L433.7,16z"/>
	<path fill="#FFFFFF" d="M471,2.3h-2.7v7.5h-2.9V2.3h-2.6V0h8.2V2.3z M483.5,9.9h-2.3V2.3h-0.1l-2.7,7.5H477l-2.7-7.5h0v7.5h-2.3V0
		h3.8l2,5.7h0l2-5.7h3.8V9.9z"/>
</g>
</svg>
